<?xml version="1.0" encoding="UTF-8" standalone="no"?>
<!-- Created with Inkscape (http://www.inkscape.org/) -->

<svg
   width="194.21429"
   height="116.88515"
   viewBox="0 0 51.385865 30.925861"
   version="1.1"
   id="svg5"
   xml:space="preserve"
   inkscape:version="1.2.2 (732a01da63, 2022-12-09)"
   xmlns:inkscape="http://www.inkscape.org/namespaces/inkscape"
   xmlns:sodipodi="http://sodipodi.sourceforge.net/DTD/sodipodi-0.dtd"
   xmlns="http://www.w3.org/2000/svg"
   xmlns:svg="http://www.w3.org/2000/svg"><sodipodi:namedview
     id="namedview7"
     pagecolor="#ffffff"
     bordercolor="#000000"
     borderopacity="0.25"
     inkscape:showpageshadow="2"
     inkscape:pageopacity="0.0"
     inkscape:pagecheckerboard="0"
     inkscape:deskcolor="#d1d1d1"
     inkscape:document-units="mm"
     showgrid="false"
     inkscape:zoom="0.914906"
     inkscape:cx="313.14692"
     inkscape:cy="544.86472"
     inkscape:window-width="2560"
     inkscape:window-height="1356"
     inkscape:window-x="-8"
     inkscape:window-y="-8"
     inkscape:window-maximized="1"
     inkscape:current-layer="layer1" /><defs
     id="defs2" /><g
     inkscape:label="Layer 1"
     inkscape:groupmode="layer"
     id="layer1"
     transform="translate(-3.5155104,-4.2392295)"><path
       style="fill:#60a539;fill-opacity:1;stroke-width:0.0618035"
       d="m 51.486789,34.869827 c -0.08555,-0.168828 -0.155549,-0.31739 -0.155549,-0.330135 0,-0.01275 0.109992,-0.05613 0.244427,-0.09641 0.313686,-0.09398 0.569166,-0.310853 0.770096,-0.653718 0.195789,-0.334088 0.199384,-0.404704 0.02067,-0.406402 -0.127437,-0.0012 -0.195025,-0.169482 -0.808793,-2.013571 -0.368352,-1.106737 -0.660375,-2.020105 -0.648936,-2.029706 0.01144,-0.0096 0.248788,-0.03571 0.527447,-0.05803 l 0.506648,-0.04057 0.05633,0.202037 c 0.07141,0.256135 0.816907,2.830314 0.853092,2.945695 0.04211,0.134273 0.07981,0.05592 0.147773,-0.307127 0.0649,-0.346727 0.109035,-0.497515 0.563838,-1.926644 l 0.270439,-0.849794 0.533551,-5e-6 0.533553,-5e-6 -0.08135,0.231764 c -0.04474,0.127469 -0.196866,0.551596 -0.338049,0.942504 -0.141183,0.390907 -0.408901,1.141822 -0.594926,1.668697 -0.186028,0.526877 -0.379876,1.069201 -0.430777,1.205171 -0.0509,0.135967 -0.115309,0.318367 -0.143131,0.405334 -0.22226,0.694736 -0.672597,1.168215 -1.278348,1.344035 -0.368644,0.106999 -0.377593,0.103194 -0.548019,-0.233129 z m -35.569005,-0.04217 c -0.536199,-0.185123 -0.865251,-0.565183 -0.865251,-0.999377 0,-0.359497 0.03251,-0.381987 0.55214,-0.381987 h 0.477114 l -0.02508,0.170872 c -0.05989,0.408088 0.448417,0.667016 1.107919,0.564361 0.698069,-0.108658 0.911165,-0.774149 0.326157,-1.01858 -0.132557,-0.05539 -0.433188,-0.08747 -0.819552,-0.08747 -0.663863,0 -1.145345,-0.108574 -1.282218,-0.289145 -0.111866,-0.147576 -0.112438,-0.515522 -0.0012,-0.674549 0.04852,-0.06927 0.201484,-0.177025 0.33992,-0.239452 0.245371,-0.110646 0.330869,-0.218335 0.173344,-0.218335 -0.162704,0 -0.543546,-0.322244 -0.632525,-0.535202 -0.05091,-0.121847 -0.09256,-0.365211 -0.09256,-0.540813 0,-0.705495 0.481157,-1.196568 1.309267,-1.336247 0.400035,-0.06747 0.513858,-0.06163 1.069106,0.05488 0.676414,0.14193 0.942604,0.116306 1.279552,-0.123176 l 0.166024,-0.118 0.189347,0.275207 c 0.104141,0.151363 0.189347,0.315847 0.189347,0.365517 0,0.120123 -0.435093,0.28914 -0.744318,0.28914 h -0.247389 l 0.108551,0.16567 c 0.163461,0.249473 0.145993,0.794056 -0.03485,1.086674 -0.229762,0.371761 -0.835857,0.639666 -1.477454,0.65306 -0.149878,0.0031 -0.509302,0.230061 -0.509302,0.32156 0,0.116897 0.240152,0.169358 0.89615,0.19577 0.70891,0.02855 0.868773,0.07669 1.16388,0.35053 0.338084,0.313719 0.447647,0.872305 0.259444,1.322736 -0.122737,0.293754 -0.52121,0.622217 -0.905341,0.746275 -0.41946,0.135472 -1.578096,0.135526 -1.970366,6.3e-5 z m 1.276369,-3.66986 c 0.205457,-0.07162 0.392327,-0.34327 0.392327,-0.570315 0,-0.08321 -0.06342,-0.245786 -0.140937,-0.361287 -0.109987,-0.163883 -0.201603,-0.221495 -0.417175,-0.26234 -0.501103,-0.09495 -0.819369,0.158113 -0.812635,0.64614 0.0067,0.483736 0.450071,0.731984 0.97842,0.547802 z m -13.4673296,3.270174 -0.211313,-0.254396 0.293758,-0.293758 c 0.179074,-0.179074 0.319757,-0.387393 0.360352,-0.5336 0.04279,-0.154092 0.06672,-1.18449 0.06694,-2.881946 l 2.34e-4,-2.642104 h 0.559217 0.559218 l -0.02149,2.734808 c -0.02392,3.042975 -0.01978,3.010412 -0.443518,3.491801 -0.249615,0.283576 -0.73393,0.633589 -0.876704,0.633589 -0.04151,0 -0.170571,-0.114477 -0.286795,-0.254394 z M 37.339334,33.322178 c -0.245167,-0.225987 -0.276225,-0.238683 -0.353989,-0.144713 -0.161001,0.194554 -0.561974,0.327977 -0.981396,0.326562 -0.928654,-0.0031 -1.359678,-0.408575 -1.359678,-1.278971 0,-0.526675 0.186838,-0.857032 0.614083,-1.085782 0.293651,-0.157226 0.910002,-0.288732 1.353242,-0.288732 0.249599,0 0.257578,-0.0062 0.256761,-0.20086 -0.0014,-0.3326 -0.06725,-0.479055 -0.260274,-0.578874 -0.23214,-0.120044 -0.666955,-0.03319 -1.139273,0.22758 l -0.318827,0.176023 -0.221529,-0.371877 -0.221525,-0.371878 0.44834,-0.204315 c 0.959583,-0.437298 1.788266,-0.455903 2.323073,-0.05216 0.342605,0.25864 0.379715,0.429398 0.379715,1.747185 0,1.211667 0.042,1.47294 0.266741,1.659318 0.0906,0.07513 0.07482,0.11312 -0.160386,0.386243 -0.143475,0.166602 -0.282343,0.302929 -0.308598,0.302945 -0.02625,1.7e-5 -0.16867,-0.111445 -0.31648,-0.247692 z m -0.71428,-0.650016 c 0.146616,-0.07582 0.182341,-0.134673 0.182341,-0.300392 0,-0.113356 0.01768,-0.335134 0.0393,-0.492841 l 0.0393,-0.286744 -0.36377,9.35e-4 c -0.464147,0.0012 -0.653311,0.09781 -0.746611,0.381468 -0.08743,0.265807 -0.01026,0.631025 0.153509,0.726497 0.15735,0.09173 0.489312,0.07794 0.695926,-0.0289 z m -24.395511,0.623957 c -0.41063,-0.191187 -0.727226,-0.529272 -0.899341,-0.960378 -0.19731,-0.494217 -0.195649,-1.491244 0.0033,-1.990397 0.290738,-0.729393 0.890906,-1.132574 1.679496,-1.12825 0.810215,0.0044 1.436008,0.428043 1.699229,1.15021 0.16251,0.445852 0.168595,1.43106 0.01163,1.884357 -0.144773,0.418119 -0.544901,0.866326 -0.935968,1.048431 -0.440734,0.205231 -1.112728,0.203519 -1.558373,-0.004 z m 1.182389,-0.730812 c 0.160244,-0.160244 0.215542,-0.28381 0.271937,-0.607647 0.121113,-0.695491 0.0548,-1.441656 -0.156843,-1.764657 -0.196714,-0.300222 -0.686063,-0.334613 -0.931263,-0.06545 -0.19716,0.216433 -0.269517,0.545527 -0.270194,1.228911 -7.01e-4,0.767199 0.09098,1.075933 0.37767,1.270928 0.283245,0.192654 0.470344,0.176261 0.708693,-0.06209 z m 15.38291,0.782281 c -0.504935,-0.249059 -0.578145,-0.53111 -0.578145,-2.227368 v -1.196734 h -0.185411 c -0.18129,0 -0.18541,-0.0069 -0.18541,-0.309018 0,-0.299781 0.0054,-0.309017 0.179224,-0.309017 0.179036,0 0.179281,-4.67e-4 0.231763,-0.509879 l 0.05254,-0.509881 0.509388,-0.129665 0.509387,-0.129663 -0.01496,0.624092 -0.01496,0.624095 0.453606,0.01827 c 0.321977,0.01297 0.445569,0.03987 0.425909,0.09271 -0.01524,0.04094 -0.06503,0.178728 -0.110652,0.306197 l -0.08295,0.231764 h -0.362802 -0.362803 l 0.01985,1.333853 c 0.02283,1.53454 0.02248,1.533587 0.55724,1.497689 l 0.290179,-0.01948 0.06519,0.259131 c 0.03586,0.142524 0.06519,0.273322 0.06519,0.290663 0,0.01733 -0.104294,0.0605 -0.231764,0.09589 -0.34441,0.09565 -1.004077,0.07759 -1.229611,-0.03365 z m 10.639205,-0.0167 C 39.052259,33.156846 38.80743,32.91703 38.618303,32.53184 c -0.162627,-0.331214 -0.173087,-0.401078 -0.173087,-1.155966 0,-0.75484 0.01046,-0.824767 0.173042,-1.155872 0.206967,-0.421519 0.666078,-0.853116 1.022155,-0.960901 0.319666,-0.09676 0.914013,-0.09976 1.190443,-0.006 0.234208,0.07944 0.550005,0.282934 0.550005,0.354414 0,0.02554 -0.104292,0.185201 -0.231764,0.354802 l -0.231764,0.30837 -0.21,-0.142697 c -0.283824,-0.192862 -0.679182,-0.194549 -0.853065,-0.0036 -0.203666,0.223605 -0.250225,0.358402 -0.296896,0.859563 -0.09196,0.987462 0.09414,1.573321 0.534663,1.683212 0.271955,0.06784 0.457875,0.02462 0.751636,-0.174729 l 0.226317,-0.153582 0.217239,0.284511 c 0.119483,0.156481 0.217242,0.303093 0.217242,0.325804 0,0.07071 -0.327706,0.283992 -0.603837,0.392989 -0.365015,0.144082 -1.138874,0.138154 -1.466585,-0.01123 z m 3.24469,0.01871 c -0.118972,-0.04968 -0.285842,-0.192133 -0.370822,-0.316571 -0.152302,-0.223018 -0.154787,-0.246849 -0.17407,-1.667898 l -0.01955,-1.441649 h -0.1813 c -0.176359,0 -0.181302,-0.0084 -0.181302,-0.309018 0,-0.302149 0.0041,-0.309017 0.185411,-0.309017 0.183801,0 0.185464,-0.0031 0.19157,-0.355372 0.01086,-0.627119 0.02571,-0.646993 0.595188,-0.797045 l 0.503463,-0.13266 -0.03623,0.639773 -0.03623,0.639775 0.464862,0.01822 0.464862,0.01822 -0.09389,0.293567 -0.09389,0.293567 H 43.53499 43.173173 l 9.35e-4,1.251522 c 0.0012,1.534161 0.0097,1.560541 0.507342,1.560541 0.346678,0 0.34956,0.0016 0.387661,0.205251 0.02112,0.112889 0.0529,0.243068 0.07063,0.28929 0.07732,0.201477 -1.044825,0.293273 -1.460979,0.119513 z m 2.6861,-0.04951 c -0.975755,-0.454374 -1.356494,-1.874876 -0.831068,-3.100645 0.124234,-0.289827 0.465642,-0.66027 0.73312,-0.795469 0.293172,-0.148186 0.804027,-0.237181 1.1068,-0.192813 1.030942,0.151076 1.621503,0.922294 1.619424,2.114821 -0.0016,0.968504 -0.370135,1.644282 -1.075591,1.972768 -0.439749,0.204766 -1.114578,0.205347 -1.552685,0.0014 z m 1.081374,-0.625026 c 0.289299,-0.149604 0.404764,-0.549809 0.401583,-1.391897 -0.0019,-0.517345 -0.03006,-0.772689 -0.103288,-0.938402 -0.125818,-0.284718 -0.415475,-0.447356 -0.701256,-0.393746 -0.216128,0.04055 -0.517639,0.337036 -0.526763,0.517992 -0.0029,0.05688 -0.02749,0.270283 -0.05471,0.474236 -0.05261,0.394131 0.02445,1.270597 0.128859,1.465699 0.07667,0.143264 0.416186,0.35696 0.567626,0.357276 0.06117,1.24e-4 0.190753,-0.04089 0.287954,-0.09116 z M 5.9674054,30.603325 v -2.781162 h 1.519098 1.5191 l -0.0337,0.169959 c -0.01852,0.09348 -0.05151,0.273509 -0.07328,0.400067 l -0.03958,0.230105 -0.874134,0.0171 -0.874135,0.0171 -0.01754,0.664388 -0.01754,0.664388 h 0.712833 0.712832 v 0.463529 0.463528 h -0.710742 -0.710741 v 1.23607 1.236072 h -0.556233 -0.556232 z m 3.025362,2.765709 c -0.0016,-0.0085 -0.01352,-0.780269 -0.02639,-1.715048 -0.01287,-0.934781 -0.05168,-1.810067 -0.08628,-1.945078 -0.03459,-0.135014 -0.05202,-0.256359 -0.03872,-0.269655 0.04833,-0.04833 0.861441,-0.2479 0.903672,-0.221799 0.02388,0.01476 0.0622,0.137939 0.08514,0.273728 0.02294,0.135792 0.06188,0.246892 0.08652,0.246892 0.02464,0 0.1264926,-0.08592 0.2263306,-0.190929 0.238753,-0.251123 0.466807,-0.365304 0.729632,-0.365304 0.39492,0 0.405577,0.02004 0.256181,0.481825 l -0.13404,0.414328 -0.303626,0.01943 c -0.206316,0.01322 -0.368189,0.06869 -0.505083,0.173106 l -0.2014606,0.153661 v 1.48014 1.480142 h -0.494429 c -0.271937,0 -0.495784,-0.007 -0.497443,-0.01544 z m 11.3903466,-0.0618 c 0.01578,-0.04249 0.327905,-0.995037 0.693603,-2.116773 0.365698,-1.121735 0.766896,-2.345447 0.891549,-2.719358 l 0.226643,-0.679838 0.587757,-0.01754 0.587758,-0.01754 0.160579,0.511965 c 0.08832,0.281579 0.276211,0.887418 0.417539,1.34631 0.141326,0.458893 0.295235,0.945596 0.342019,1.081563 0.04678,0.135969 0.201071,0.622672 0.342863,1.081563 0.141791,0.458891 0.310742,0.998859 0.375448,1.199927 0.06471,0.201068 0.117646,0.374891 0.117646,0.386273 0,0.01138 -0.261196,0.0207 -0.580434,0.0207 H 23.96565 L 23.924141,33.21451 C 23.90131,33.121031 23.813178,32.815105 23.72829,32.53467 L 23.573948,32.024791 H 22.72222 21.870493 l -0.0766,0.262663 c -0.04213,0.144468 -0.132676,0.450396 -0.201213,0.679841 l -0.124612,0.417174 h -0.556825 c -0.419563,0 -0.549751,-0.01904 -0.528128,-0.07725 z m 2.887822,-2.224929 c -8.18e-4,-0.04249 -0.02686,-0.174595 -0.0579,-0.293567 -0.03103,-0.118971 -0.138198,-0.558222 -0.238147,-0.976114 -0.09995,-0.41789 -0.197156,-0.775233 -0.216016,-0.794091 -0.03433,-0.03433 -0.22811,0.553423 -0.22811,0.69188 0,0.04043 -0.08326,0.362167 -0.185027,0.714974 -0.101766,0.352807 -0.1852,0.662326 -0.185411,0.68782 -1.86e-4,0.02549 0.249921,0.04635 0.555849,0.04635 0.40457,0 0.55583,-0.02107 0.554757,-0.07726 z m 2.094722,2.286732 c -0.0044,-0.0085 -0.01524,-0.766364 -0.024,-1.684146 -0.0099,-1.035549 -0.04354,-1.770729 -0.08869,-1.937602 -0.04002,-0.147896 -0.05852,-0.283146 -0.04111,-0.300553 0.05361,-0.05361 0.865015,-0.257791 0.911149,-0.229279 0.02388,0.01476 0.0622,0.137939 0.08514,0.273728 0.02294,0.135792 0.06188,0.246892 0.08652,0.246892 0.02464,0 0.126493,-0.08592 0.226331,-0.190929 0.238753,-0.251123 0.466807,-0.365304 0.729631,-0.365304 0.394925,0 0.405581,0.02004 0.256149,0.481825 l -0.134076,0.414328 -0.345949,0.03126 c -0.252101,0.02278 -0.389111,0.07181 -0.505051,0.180732 l -0.159101,0.149469 v 1.472513 1.472513 h -0.494429 c -0.271936,0 -0.498062,-0.007 -0.502503,-0.01544 z m 5.261379,-2.015129 v -2.030582 l 0.386273,-0.03875 c 0.212449,-0.0213 0.448848,-0.05639 0.525329,-0.07795 l 0.13906,-0.0392 v 2.108532 2.10853 h -0.525331 -0.525331 z m 1.977715,0.330983 V 29.98529 h -0.18541 c -0.18354,0 -0.185411,-0.0034 -0.185411,-0.339918 0,-0.336486 0.0019,-0.33992 0.185411,-0.33992 h 0.18541 l 4.68e-4,-0.448076 c 4.67e-4,-0.585522 0.07765,-0.843352 0.32352,-1.080514 0.272749,-0.263089 0.470372,-0.326615 0.993484,-0.319358 0.454352,0.0063 0.60433,0.03507 0.806312,0.154661 0.110431,0.06538 0.10891,0.07901 -0.0379,0.339918 -0.109675,0.194913 -0.185929,0.266013 -0.269552,0.25133 -0.460188,-0.08081 -0.496915,-0.07849 -0.64411,0.04066 -0.136878,0.110798 -0.15234,0.169351 -0.15234,0.576893 v 0.453582 l 0.501881,0.01782 0.501886,0.01782 -0.124346,0.33755 -0.124344,0.337549 h -0.392989 -0.392991 v 1.6996 1.699599 h -0.494428 -0.494429 v -1.699599 z m 15.929211,-0.04635 c -0.01757,-1.023801 -0.05832,-1.833727 -0.09856,-1.958171 -0.03774,-0.116719 -0.05668,-0.224158 -0.04209,-0.23875 0.05352,-0.05352 0.864132,-0.250054 0.911244,-0.220935 0.02675,0.01654 0.06617,0.139711 0.0876,0.273728 0.02142,0.134016 0.05802,0.243668 0.08131,0.243668 0.02329,0 0.124026,-0.08592 0.223864,-0.190929 0.244042,-0.256685 0.468055,-0.365493 0.750137,-0.364358 0.365918,0.0014 0.385371,0.04143 0.24022,0.493484 l -0.128995,0.401723 -0.308418,0.01943 c -0.211592,0.01334 -0.371667,0.06769 -0.509879,0.173106 l -0.201461,0.153661 v 1.48014 1.480142 H 49.051422 48.563907 Z M 30.867655,28.659752 c -0.200933,-0.113024 -0.364298,-0.356213 -0.363994,-0.541852 3.74e-4,-0.209894 0.223512,-0.537092 0.416328,-0.610402 0.404223,-0.153685 0.881316,0.169249 0.881316,0.596543 0,0.443605 -0.550468,0.771246 -0.93365,0.555711 z m -9.016727,-5.90549 v -0.618035 h 7.385528 7.385528 v 0.618035 0.618038 h -7.385528 -7.385528 z m 6.180358,-3.799065 c -1.538171,-0.24442 -3.008818,-1.00575 -4.12177,-2.133772 -1.315912,-1.333731 -2.028349,-2.953951 -2.160628,-4.913694 -0.04419,-0.654686 0.08794,-1.637308 0.328261,-2.4412423 0.138317,-0.462703 0.559014,-1.413616 0.778299,-1.759215 1.063514,-1.676122 2.62511,-2.792946 4.68141,-3.348052 0.579578,-0.15646 2.623431,-0.161008 3.255717,-0.0072 1.425269,0.346603 2.649309,1.020367 3.584494,1.973058 0.61704,0.628591 0.729083,0.764845 1.095023,1.331635 1.388356,2.150375 1.527135,4.9697803 0.358549,7.2841993 -1.284475,2.543941 -3.885731,4.129786 -6.717792,4.095472 -0.339919,-0.0041 -0.826623,-0.04063 -1.081563,-0.08114 z m 2.317635,-1.278686 c 3.173416,-0.645048 5.289609,-3.491453 4.978103,-6.695834 -0.199996,-2.0573043 -1.498507,-3.9335233 -3.37121,-4.8710683 -3.272116,-1.638143 -7.172384,-0.12734 -8.535209,3.306184 -0.524644,1.3218003 -0.524645,3.0211253 -3e-6,4.3898923 0.840788,2.193575 2.815052,3.691469 5.22872,3.967087 0.310997,0.03551 1.337275,-0.02261 1.699599,-0.09626 z"
       id="path728" /></g></svg>
